
Format : MPEG-4
Format profile : Base Media / Version 2
Codec ID : mp42
File size : 285 MiB
Duration : 1h 9mn
Overall bit rate : 571 Kbps
Encoded date : UTC 2010-10-25 13:35:48
Tagged date : UTC 2010-10-25 13:36:06
Writing application : mp4creator 1.6.1d

Video
ID : 1
Format : AVC
Format/Info : Advanced Video Codec
Format profile : Baseline@L1.3
Format settings, CABAC : No
Format settings, ReFrames : 1 frame
Codec ID : avc1
Codec ID/Info : Advanced Video Coding
Duration : 1h 9mn
Bit rate mode : Variable
Bit rate : 507 Kbps
Width : 480 pixels
Height : 272 pixels
Display aspect ratio : 16:9
Original display aspect ratio : 16:9
Frame rate mode : Constant
Frame rate : 24.000 fps
Resolution : 24 bits
Colorimetry : 4:2:0
Scan type : Progressive
Bits/(Pixel*Frame) : 0.162
Stream size : 253 MiB (89%)
Encoded date : UTC 2010-10-25 13:35:48
Tagged date : UTC 2010-10-25 13:36:04

Audio
ID : 2
Format : AAC
Format/Info : Advanced Audio Codec
Format version : Version 4
Format profile : LC
Format settings, SBR : Yes
Format settings, PS : No
Codec ID : 40
Duration : 1h 9mn
Bit rate mode : Variable
Bit rate : 62.8 Kbps
Maximum bit rate : 112 Kbps
Channel(s) : 2 channels
Channel positions : L R
Sampling rate : 48.0 KHz
Resolution : 16 bits
Stream size : 31.3 MiB (11%)
Encoded date : UTC 2010-10-25 13:36:05
Tagged date : UTC 2010-10-25 13:36:06

Road Train takes place in one of these dangerous areas of Australia, with a group of teenagers on a camping trip in the outback. We've got Craig (Bob Morley), Liz (Georgina Haig), Marcus (Xavier Samuel) and Nina (Sophie Lowe), who have very complex relationships that seem to revolve around Craig sleeping with Liz and Nina at some point, much to the annoyance of the handsome, blonde surfer type that is Marcus. Despite this slight inconvenience, they're the best of friends who have the occasional argument, different points of view, but get along all the same.
 
http://www.imdb.com/title/tt1241330/

screens
 
http://img225.imageshack.us/img225/2184/roadtrainh264vicemp4sna.jpght 
http://img169.imageshack.us/img169/2184/roadtrainh264vicemp4sna.jpg 
http://img836.imageshack.us/img836/2184/roadtrainh264vicemp4sna.jpg 
http://img215.imageshack.us/img215/2184/roadtrainh264vicemp4sna.jpg
 
http://img824.imageshack.us/img824/83/roadtrainh264vicemp4thu.jpg